#N canvas 0 0 1242 896 10;
#X obj 146 19 bng 15 250 50 1 empty empty >> 0 -6 0 8 -258699 -1 -1
;
#X obj 96 19 bng 15 250 50 0 empty empty << 0 -6 0 8 -258699 -1 -1
;
#X obj 254 278 int;
#X msg 247 135 1;
#X msg 282 133 -1;
#X obj 278 194 +;
#X obj 218 164 bng 15 250 50 0 empty empty empty 0 -6 0 8 -262144 -1
-1;
#X floatatom 260 165 5 0 0 0 - - -;
#X floatatom 278 250 5 0 0 0 - - -;
#X floatatom 441 298 5 0 0 0 counter - -;
#X floatatom 340 17 5 0 0 0 min - -;
#X obj 434 196 bng 15 250 50 0 empty empty empty 0 -6 0 8 -262144 -1
-1;
#X obj 366 195 bng 15 250 50 0 empty empty empty 0 -6 0 8 -262144 -1
-1;
#X floatatom 365 153 5 0 0 0 - - -;
#X floatatom 432 152 5 0 0 0 - - -;
#X obj 423 172 select 1;
#X obj 351 174 select 1;
#X floatatom 407 22 5 0 0 0 max - -;
#X obj 442 109 >;
#X floatatom 360 215 5 0 0 0 - - -;
#X floatatom 426 215 5 0 0 0 - - -;
#X obj 376 111 <;
#X obj 524 96 bng 15 250 50 0 empty empty empty 0 -6 0 8 -262144 -1
-1;
#X obj 524 119 tgl 15 0 empty empty empty 0 -6 0 8 -262144 -1 -1 0
1;
#X floatatom 544 69 5 0 0 0 - - -;
#X obj 522 220 bng 15 250 50 0 empty empty empty 0 -6 0 8 -262144 -1
-1;
#X obj 483 206 vsl 20 100 0 127 0 0 fadertesting empty empty 0 -8 128
8 -241291 -1 -1 0 1;
#X floatatom 500 325 0 0 0 0 - - -;
#X obj 522 -1 vsl 10 60 2 2000 1 0 empty empty empty 0 -8 0 8 -258699
-1 -1 1118 1;
#X obj 135 -63 inlet;
#X obj 72 -63 inlet;
#X obj 338 -62 inlet;
#X obj 417 -63 inlet;
#X obj 522 -79 inlet;
#X obj 529 150 metro 1000;
#X obj 452 325 outlet;
#X obj 433 -37 loadbang;
#X obj 353 -35 loadbang;
#X obj 551 -53 loadbang;
#X msg 547 -24 100;
#X msg 600 261 0;
#X obj 660 264 loadbang;
#X text 536 20 fader speed;
#X text 536 -2 slow;
#X text 537 45 fast;
#X text 62 -87 + bangs;
#X text 126 -86 - bangs;
#X text 329 -85 fader min;
#X text 409 -85 fader max;
#X text 708 16 ** increase and decrease the fader value by + and -
bangs. (inlet 1 \, 2) ** You can provide the min and max values of
the fader. (inlet 3 \, 4) ** You can adjust the speed of the fader.
(inlet 5);
#X text 521 -101 speed;
#X obj 637 265 bng 15 250 50 0 empty empty empty 0 -6 0 8 -128992 -1
-1;
#X msg 583 200 0;
#X obj 706 -78 inlet;
#X text 685 -101 reset fader;
#X obj 624 -81 inlet;
#X text 586 -103 stop fader;
#X msg 637 -4 0;
#X msg 349 -10 0;
#X msg 429 -8 127;
#X floatatom 264 -45 5 0 0 0 r_fadermax fadermax -;
#X floatatom 264 -30 5 0 0 0 r_fadermin fadermin -;
#X connect 0 0 3 0;
#X connect 0 0 6 0;
#X connect 0 0 22 0;
#X connect 1 0 4 0;
#X connect 1 0 6 0;
#X connect 1 0 22 0;
#X connect 2 0 5 0;
#X connect 2 0 9 0;
#X connect 3 0 7 0;
#X connect 4 0 7 0;
#X connect 5 0 8 0;
#X connect 6 0 5 0;
#X connect 6 0 2 0;
#X connect 7 0 5 1;
#X connect 8 0 2 1;
#X connect 8 0 18 0;
#X connect 8 0 21 0;
#X connect 9 0 26 0;
#X connect 9 0 35 0;
#X connect 10 0 19 0;
#X connect 10 0 21 1;
#X connect 11 0 20 0;
#X connect 11 0 23 0;
#X connect 12 0 19 0;
#X connect 12 0 23 0;
#X connect 13 0 16 0;
#X connect 14 0 15 0;
#X connect 15 0 11 0;
#X connect 16 0 12 0;
#X connect 17 0 18 1;
#X connect 17 0 20 0;
#X connect 18 0 14 0;
#X connect 19 0 8 0;
#X connect 20 0 8 0;
#X connect 21 0 13 0;
#X connect 22 0 23 0;
#X connect 23 0 34 0;
#X connect 24 0 34 1;
#X connect 25 0 2 0;
#X connect 26 0 27 0;
#X connect 28 0 24 0;
#X connect 29 0 1 0;
#X connect 30 0 0 0;
#X connect 31 0 10 0;
#X connect 32 0 17 0;
#X connect 33 0 28 0;
#X connect 34 0 25 0;
#X connect 36 0 59 0;
#X connect 37 0 58 0;
#X connect 38 0 39 0;
#X connect 39 0 28 0;
#X connect 40 0 2 0;
#X connect 41 0 51 0;
#X connect 51 0 40 0;
#X connect 51 0 52 0;
#X connect 52 0 23 0;
#X connect 53 0 51 0;
#X connect 55 0 57 0;
#X connect 57 0 23 0;
#X connect 58 0 10 0;
#X connect 59 0 17 0;
#X connect 60 0 17 0;
#X connect 61 0 10 0;
