#N canvas 0 0 1242 896 10;
#X obj 555 446 bng 15 250 50 1 empty empty + 0 -6 0 8 -262144 -1 -1
;
#X obj 596 447 bng 15 250 50 0 empty empty - 0 -6 0 8 -262144 -1 -1
;
#X obj 481 171 vradio 15 1 0 18 empty empty empty 0 -6 0 8 -262144
-1 -1 2;
#X floatatom 258 627 0 0 0 0 - - -;
#X obj 772 321 vsl 15 128 0 127 0 0 jfader2 empty empty 0 -8 128 8 -260818
-1 -1 0 1;
#X floatatom 772 501 0 0 0 0 - - -;
#X obj 803 321 vsl 15 128 0 127 0 0 jfader3 empty empty 0 -8 128 8 -260818
-1 -1 0 1;
#X floatatom 804 469 0 0 0 0 - - -;
#X obj 739 321 vsl 15 128 0 127 0 0 jfader1 empty empty 0 -8 128 8 -260818
-1 -1 12700 1;
#X floatatom 736 470 0 0 0 0 - - -;
#X obj 833 320 vsl 15 128 0 127 0 0 jfader4 empty empty 0 -8 128 8 -260818
-1 -1 12700 1;
#X floatatom 831 504 0 0 0 0 - - -;
#X floatatom 277 537 5 0 0 0 fader# - -;
#X floatatom 39 534 5 0 0 0 - - -;
#X obj 893 322 vsl 15 128 0 127 0 0 jfader6 empty empty 0 -8 128 8 -260818
-1 -1 0 1;
#X floatatom 893 504 0 0 0 0 - - -;
#X obj 924 322 vsl 15 128 0 127 0 0 jfader7 empty empty 0 -8 128 8 -260818
-1 -1 0 1;
#X floatatom 924 470 0 0 0 0 - - -;
#X obj 862 321 vsl 15 128 0 127 0 0 jfader5 empty empty 0 -8 128 8 -260818
-1 -1 7620 1;
#X floatatom 861 468 0 0 0 0 - - -;
#X obj 956 322 vsl 15 128 0 127 0 0 jfader8 empty empty 0 -8 128 8 -260818
-1 -1 12700 1;
#X floatatom 958 502 0 0 0 0 - - -;
#X obj 357 388 loadbang;
#X obj 329 351 loadbang;
#X msg 329 391 1;
#X obj 199 391 oneshot;
#X msg 200 365 clear;
#X obj 256 392 bng 15 250 50 0 empty empty empty 0 -6 0 8 -257472 -1
-1;
#X obj 296 335 bng 15 250 50 0 empty empty empty 0 -6 0 8 -262144 -1
-1;
#X obj 296 307 bng 15 250 50 0 empty empty - 0 -6 0 8 -233017 -1 -1
;
#X obj 120 392 oneshot;
#X msg 121 366 clear;
#X obj 177 393 bng 15 250 50 0 empty empty empty 0 -6 0 8 -257472 -1
-1;
#X obj 277 335 bng 15 250 50 0 empty empty empty 0 -6 0 8 -262144 -1
-1;
#X obj 277 307 bng 15 250 50 0 empty empty + 0 -6 0 8 -233017 -1 -1
;
#X obj 277 451 bang_counter;
#X obj 258 597 spigot;
#X msg 321 592 0;
#X floatatom 515 623 0 0 0 0 - - -;
#X obj 515 593 spigot;
#X msg 577 591 0;
#X floatatom 1018 455 5 0 0 0 - - -;
#X obj 1018 356 vsl 10 60 1 127 1 0 empty empty empty 0 -8 0 8 -260818
-1 -1 2438 1;
#X text 1036 342 slow;
#X text 1034 408 fast;
#X obj 1131 395 bng 15 250 50 0 empty empty empty 0 -6 0 8 -128992
-1 -1;
#X msg 1155 441 0;
#X obj 1131 375 loadbang;
#X text 823 88 reset faders to 0;
#X obj 122 415 delay 20;
#X obj 201 414 delay 20;
#X text 83 125 ## select channel ##;
#X obj 103 328 tgl 15 0 empty empty empty 0 -6 0 8 -262144 -1 -1 0
1;
#X obj 210 328 bng 15 250 50 0 empty empty empty 0 -6 0 8 -262144 -1
-1;
#X obj 103 309 tgl 15 0 empty empty empty 0 -6 0 8 -262144 -1 -1 0
1;
#X obj 210 309 bng 15 250 50 0 empty empty empty 0 -6 0 8 -262144 -1
-1;
#X obj 124 308 select 1 0;
#X obj 124 327 select 1 0;
#X obj 36 421 loadbang;
#X msg 103 474 1;
#X obj 36 450 bng 15 250 50 0 empty empty empty 0 -6 0 8 -128992 -1
-1;
#X text 984 321 faders speed;
#X obj 1365 423 r stopfader;
#X floatatom 1441 591 6 0 0 3 fader# - -;
#X msg 1506 521 0;
#X msg 1471 522 1;
#X obj 1441 570 spigot 0;
#X obj 1492 545 tgl 15 0 empty empty empty 0 -6 0 8 -262144 -1 -1 0
1;
#X obj 1444 497 bng 15 250 50 0 empty empty empty 0 -6 0 8 -262144
-1 -1;
#X floatatom 1442 551 5 0 0 0 - - -;
#X obj 1380 459 bng 15 250 50 0 empty empty empty 0 -6 0 8 -166441
-1 -1;
#X msg 1352 574 0;
#X obj 1380 496 delay 10;
#X msg 321 572 1;
#X msg 577 570 1;
#X obj 355 591 delay 100;
#X obj 609 592 delay 100;
#X obj 295 579 tgl 15 0 empty empty empty 0 -6 0 8 -262144 -1 -1 0
1;
#X obj 552 573 tgl 15 0 empty empty empty 0 -6 0 8 -262144 -1 -1 0
1;
#X obj 329 371 bng 15 250 50 0 empty empty empty 0 -6 0 8 -262144 -1
-1;
#X text 412 144 channel selected;
#X obj 122 775 bng 15 250 50 0 empty empty empty 0 -6 0 8 -262144 -1
-1;
#X obj 140 775 bng 15 250 50 0 empty empty empty 0 -6 0 8 -262144 -1
-1;
#X obj 158 775 bng 15 250 50 0 empty empty empty 0 -6 0 8 -262144 -1
-1;
#X obj 176 775 bng 15 250 50 0 empty empty empty 0 -6 0 8 -262144 -1
-1;
#X obj 194 775 bng 15 250 50 0 empty empty empty 0 -6 0 8 -262144 -1
-1;
#X obj 212 775 bng 15 250 50 0 empty empty empty 0 -6 0 8 -262144 -1
-1;
#X obj 230 775 bng 15 250 50 0 empty empty empty 0 -6 0 8 -262144 -1
-1;
#X obj 248 775 bng 15 250 50 0 empty empty empty 0 -6 0 8 -262144 -1
-1;
#X obj 267 776 bng 15 250 50 0 empty empty empty 0 -6 0 8 -262144 -1
-1;
#X obj 9 797 s j1;
#X obj 43 797 s j2;
#X obj 77 797 s j3;
#X obj 111 797 s j4;
#X obj 177 797 s j6;
#X obj 210 797 s j7;
#X obj 243 797 s j8;
#X obj 144 797 s j5;
#X msg 366 479 0;
#X obj 119 562 s resetTrack;
#X obj 79 534 bng 15 250 50 0 empty empty empty 0 -6 0 8 -262144 -1
-1;
#X obj 49 566 bng 15 250 50 0 empty empty empty 0 -6 0 8 -262144 -1
-1;
#X obj 26 510 del 1;
#X obj 451 767 r resetTrack;
#X obj 739 297 tgl 15 0 empty j1 empty 0 -6 64 8 -260818 -1 -1 0 1
;
#X obj 773 296 tgl 15 0 empty j2 empty 0 -6 64 8 -260818 -1 -1 1 1
;
#X obj 804 296 tgl 15 0 empty j3 empty 0 -6 64 8 -260818 -1 -1 0 1
;
#X obj 833 295 tgl 15 0 empty j4 empty 0 -6 64 8 -260818 -1 -1 0 1
;
#X obj 863 295 tgl 15 0 empty j5 empty 0 -6 64 8 -260818 -1 -1 0 1
;
#X obj 892 295 tgl 15 0 empty j6 empty 0 -6 64 8 -260818 -1 -1 0 1
;
#X obj 923 295 tgl 15 0 empty j7 empty 0 -6 64 8 -260818 -1 -1 0 1
;
#X obj 956 295 tgl 15 0 empty j8 empty 0 -6 64 8 -260818 -1 -1 0 1
;
#X obj 1444 475 delay 10;
#X text 679 245 monitor all faders position and selected channel to
edit;
#X text 704 203 # up/down or X/A = increase/decrease selected fader
#;
#X text 715 216 # left/rigth or L/R = select next/previous fader #
;
#X text 1265 387 stop fader with his respective note off (from note
off section);
#X obj 776 779 vsl 15 128 0 127 0 0 jfader10 empty empty 0 -8 128 8
-260818 -1 -1 12700 1;
#X floatatom 776 959 0 0 0 0 - - -;
#X obj 807 779 vsl 15 128 0 127 0 0 jfader11 empty empty 0 -8 128 8
-260818 -1 -1 12700 1;
#X floatatom 808 927 0 0 0 0 - - -;
#X obj 743 779 vsl 15 128 0 127 0 0 jfader9 empty empty 0 -8 128 8
-260818 -1 -1 0 1;
#X floatatom 740 928 0 0 0 0 - - -;
#X obj 837 778 vsl 15 128 0 127 0 0 jfader12 empty empty 0 -8 128 8
-260818 -1 -1 12700 1;
#X floatatom 835 962 0 0 0 0 - - -;
#X obj 897 780 vsl 15 128 0 127 0 0 jfader14 empty empty 0 -8 128 8
-260818 -1 -1 0 1;
#X floatatom 897 962 0 0 0 0 - - -;
#X obj 928 780 vsl 15 128 0 127 0 0 jfader15 empty empty 0 -8 128 8
-260818 -1 -1 0 1;
#X floatatom 928 928 0 0 0 0 - - -;
#X obj 866 779 vsl 15 128 0 127 0 0 jfader13 empty empty 0 -8 128 8
-260818 -1 -1 12700 1;
#X floatatom 865 926 0 0 0 0 - - -;
#X obj 960 780 vsl 15 128 0 127 0 0 jfader16 empty empty 0 -8 128 8
-260818 -1 -1 0 1;
#X floatatom 962 960 0 0 0 0 - - -;
#X floatatom 532 1092 5 0 0 0 - - -;
#X obj 489 1057 vsl 10 60 1 127 1 0 empty empty empty 0 -8 0 8 -262144
-1 -1 2438 1;
#X text 448 1059 slow;
#X text 454 1111 fast;
#X text 477 1026 faders speed;
#X obj 743 755 tgl 15 0 empty j9 empty 0 -6 64 8 -260818 -1 -1 0 1
;
#X obj 777 754 tgl 15 0 empty j10 empty 0 -6 64 8 -260818 -1 -1 0 1
;
#X obj 808 754 tgl 15 0 empty j11 empty 0 -6 64 8 -260818 -1 -1 0 1
;
#X obj 837 753 tgl 15 0 empty j12 empty 0 -6 64 8 -260818 -1 -1 0 1
;
#X obj 867 753 tgl 15 0 empty j13 empty 0 -6 64 8 -260818 -1 -1 0 1
;
#X obj 896 753 tgl 15 0 empty j14 empty 0 -6 64 8 -260818 -1 -1 0 1
;
#X obj 927 753 tgl 15 0 empty j15 empty 0 -6 64 8 -260818 -1 -1 0 1
;
#X obj 960 753 tgl 15 0 empty j16 empty 0 -6 64 8 -260818 -1 -1 0 1
;
#X msg 338 426 16;
#X obj 279 797 s j9;
#X obj 313 797 s j10;
#X obj 354 798 s j11;
#X obj 394 798 s j12;
#X obj 434 798 s j13;
#X obj 474 798 s j14;
#X obj 514 798 s j15;
#X obj 555 798 s j16;
#X obj 38 744 route 1 2 3 4 5 6 7 8 9 10 11 12 13 14 15 16;
#X obj 286 776 bng 15 250 50 0 empty empty empty 0 -6 0 8 -262144 -1
-1;
#X obj 304 776 bng 15 250 50 0 empty empty empty 0 -6 0 8 -262144 -1
-1;
#X obj 322 776 bng 15 250 50 0 empty empty empty 0 -6 0 8 -262144 -1
-1;
#X obj 340 776 bng 15 250 50 0 empty empty empty 0 -6 0 8 -262144 -1
-1;
#X obj 358 776 bng 15 250 50 0 empty empty empty 0 -6 0 8 -262144 -1
-1;
#X obj 376 776 bng 15 250 50 0 empty empty empty 0 -6 0 8 -262144 -1
-1;
#X obj 394 776 bng 15 250 50 0 empty empty empty 0 -6 0 8 -262144 -1
-1;
#X obj 412 776 bng 15 250 50 0 empty empty empty 0 -6 0 8 -262144 -1
-1;
#X obj 142 1139 select 0 1 2 3 4 5 6 7 8 9 10 11 12 13 14 15 16;
#X obj 367 711 select 0 1 2 3 4 5 6 7 8 9 10 11 12 13 14 15 16;
#X obj 1105 720 select 0 1 2 3 4 5 6 7 8 9 10 11 12 13 14 15 16;
#X text 726 273 [1-8];
#X text 728 730 [8-16];
#X text 54 731 define toggle of selected channel;
#X obj 119 532 bng 15 250 50 0 empty empty empty 0 -6 0 8 -262144 -1
-1;
#X obj 160 517 loadbang;
#X obj 542 92 bng 15 250 50 1 empty empty + 0 -6 0 8 -241291 -1 -1
;
#X obj 583 92 bng 15 250 50 0 empty empty - 0 -6 0 8 -241291 -1 -1
;
#X obj 36 122 bng 15 250 50 0 empty empty + 0 20 0 8 -241291 -1 -1
;
#X obj 57 125 bng 15 250 50 0 empty empty - 0 -6 0 8 -241291 -1 -1
;
#X obj 796 86 bng 15 250 50 0 empty empty empty 0 -6 0 8 -241291 -1
-1;
#X text 605 91 fader_down;
#X text 478 92 fader_up;
#X obj 25 31 inlet;
#X obj 75 32 inlet;
#X obj 525 27 inlet;
#X obj 577 28 inlet;
#X obj 784 25 inlet;
#X obj 56 959 loadbang;
#X obj 48 994 bng 15 250 50 0 empty empty empty 0 -6 0 8 -262144 -1
-1;
#X msg 43 924 0;
#X msg 132 928 1;
#X obj 790 1221 fader_counter;
#X obj 966 17 inlet;
#X obj 974 87 bng 15 250 50 0 empty empty empty 0 -6 0 8 -241291 -1
-1;
#X text 1001 89 stop fader;
#X obj 1169 601 bng 15 250 50 0 empty empty empty 0 -6 0 8 -241291
-1 -1;
#X text 1196 603 stop fader;
#X obj 1254 1136 bng 15 250 50 0 empty empty empty 0 -6 0 8 -241291
-1 -1;
#X text 1281 1138 stop fader;
#X obj 1108 21 inlet;
#X obj 1116 91 bng 15 250 50 0 empty empty empty 0 -6 0 8 -241291 -1
-1;
#X text 1143 93 speed fader;
#X text 302 123 ## select channel ##;
#X obj 255 120 bng 15 250 50 0 empty empty + 0 20 0 8 -241291 -1 -1
;
#X obj 276 123 bng 15 250 50 0 empty empty - 0 -6 0 8 -241291 -1 -1
;
#X obj 244 29 inlet;
#X obj 294 30 inlet;
#X text 8 149 only uses note on;
#X obj 792 1372 fader_counter;
#X obj 822 560 fader_counter;
#X obj 822 581 fader_counter;
#X obj 823 603 fader_counter;
#X obj 823 625 fader_counter;
#X obj 823 646 fader_counter;
#X obj 823 668 fader_counter;
#X obj 823 689 fader_counter;
#X obj 824 711 fader_counter;
#X obj 790 1242 fader_counter;
#X obj 791 1264 fader_counter;
#X obj 791 1286 fader_counter;
#X obj 791 1307 fader_counter;
#X obj 791 1329 fader_counter;
#X obj 791 1350 fader_counter;
#X connect 0 0 73 0;
#X connect 0 0 75 0;
#X connect 0 0 12 0;
#X connect 1 0 74 0;
#X connect 1 0 76 0;
#X connect 1 0 12 0;
#X connect 2 0 13 0;
#X connect 2 0 98 0;
#X connect 2 0 102 0;
#X connect 3 0 164 0;
#X connect 4 0 5 0;
#X connect 6 0 7 0;
#X connect 8 0 9 0;
#X connect 10 0 11 0;
#X connect 12 0 36 0;
#X connect 12 0 39 0;
#X connect 12 0 69 0;
#X connect 13 0 101 0;
#X connect 13 0 155 0;
#X connect 14 0 15 0;
#X connect 16 0 17 0;
#X connect 18 0 19 0;
#X connect 20 0 21 0;
#X connect 22 0 146 0;
#X connect 23 0 79 0;
#X connect 24 0 35 2;
#X connect 24 0 12 0;
#X connect 25 0 28 0;
#X connect 25 0 50 0;
#X connect 26 0 25 0;
#X connect 28 0 35 1;
#X connect 29 0 25 0;
#X connect 30 0 33 0;
#X connect 30 0 49 0;
#X connect 31 0 30 0;
#X connect 33 0 35 0;
#X connect 34 0 30 0;
#X connect 35 0 2 0;
#X connect 35 0 12 0;
#X connect 36 0 3 0;
#X connect 37 0 3 0;
#X connect 37 0 77 0;
#X connect 38 0 165 0;
#X connect 39 0 38 0;
#X connect 40 0 38 0;
#X connect 40 0 78 0;
#X connect 41 0 206 4;
#X connect 41 0 207 4;
#X connect 41 0 208 4;
#X connect 41 0 209 4;
#X connect 41 0 210 4;
#X connect 41 0 211 4;
#X connect 41 0 212 4;
#X connect 41 0 213 4;
#X connect 42 0 41 0;
#X connect 42 0 134 0;
#X connect 45 0 46 0;
#X connect 46 0 188 6;
#X connect 46 0 205 6;
#X connect 46 0 206 6;
#X connect 46 0 207 6;
#X connect 46 0 208 6;
#X connect 46 0 209 6;
#X connect 46 0 210 6;
#X connect 46 0 211 6;
#X connect 46 0 212 6;
#X connect 46 0 213 6;
#X connect 46 0 214 6;
#X connect 46 0 215 6;
#X connect 46 0 216 6;
#X connect 46 0 217 6;
#X connect 46 0 218 6;
#X connect 46 0 219 6;
#X connect 47 0 45 0;
#X connect 49 0 32 0;
#X connect 49 0 31 0;
#X connect 50 0 27 0;
#X connect 50 0 26 0;
#X connect 52 0 57 0;
#X connect 53 0 34 0;
#X connect 54 0 56 0;
#X connect 55 0 29 0;
#X connect 56 1 55 0;
#X connect 57 1 53 0;
#X connect 58 0 59 0;
#X connect 58 0 60 0;
#X connect 59 0 54 0;
#X connect 59 0 52 0;
#X connect 60 0 59 0;
#X connect 62 0 70 0;
#X connect 63 0 166 0;
#X connect 64 0 67 0;
#X connect 65 0 67 0;
#X connect 66 0 63 0;
#X connect 67 0 66 1;
#X connect 68 0 64 0;
#X connect 68 0 71 0;
#X connect 69 0 66 0;
#X connect 70 0 72 0;
#X connect 71 0 63 0;
#X connect 72 0 65 0;
#X connect 72 0 69 0;
#X connect 72 0 112 0;
#X connect 73 0 77 0;
#X connect 74 0 78 0;
#X connect 75 0 37 0;
#X connect 76 0 40 0;
#X connect 77 0 36 1;
#X connect 78 0 39 1;
#X connect 79 0 24 0;
#X connect 81 0 90 0;
#X connect 82 0 91 0;
#X connect 83 0 92 0;
#X connect 84 0 93 0;
#X connect 85 0 97 0;
#X connect 86 0 94 0;
#X connect 87 0 95 0;
#X connect 88 0 96 0;
#X connect 89 0 147 0;
#X connect 98 0 99 0;
#X connect 102 0 13 0;
#X connect 102 0 100 0;
#X connect 103 0 90 0;
#X connect 103 0 91 0;
#X connect 103 0 92 0;
#X connect 103 0 93 0;
#X connect 103 0 97 0;
#X connect 103 0 94 0;
#X connect 103 0 95 0;
#X connect 103 0 96 0;
#X connect 103 0 147 0;
#X connect 103 0 148 0;
#X connect 103 0 149 0;
#X connect 103 0 150 0;
#X connect 103 0 151 0;
#X connect 103 0 152 0;
#X connect 103 0 153 0;
#X connect 103 0 154 0;
#X connect 112 0 68 0;
#X connect 117 0 118 0;
#X connect 119 0 120 0;
#X connect 121 0 122 0;
#X connect 123 0 124 0;
#X connect 125 0 126 0;
#X connect 127 0 128 0;
#X connect 129 0 130 0;
#X connect 131 0 132 0;
#X connect 133 0 188 4;
#X connect 133 0 205 4;
#X connect 133 0 214 4;
#X connect 133 0 215 4;
#X connect 133 0 216 4;
#X connect 133 0 217 4;
#X connect 133 0 218 4;
#X connect 133 0 219 4;
#X connect 134 0 133 0;
#X connect 146 0 35 3;
#X connect 155 0 81 0;
#X connect 155 1 82 0;
#X connect 155 2 83 0;
#X connect 155 3 84 0;
#X connect 155 4 85 0;
#X connect 155 5 86 0;
#X connect 155 6 87 0;
#X connect 155 7 88 0;
#X connect 155 8 89 0;
#X connect 155 9 156 0;
#X connect 155 10 157 0;
#X connect 155 11 158 0;
#X connect 155 12 159 0;
#X connect 155 13 160 0;
#X connect 155 14 161 0;
#X connect 155 15 162 0;
#X connect 155 16 163 0;
#X connect 156 0 148 0;
#X connect 157 0 149 0;
#X connect 158 0 150 0;
#X connect 159 0 151 0;
#X connect 160 0 152 0;
#X connect 161 0 153 0;
#X connect 162 0 154 0;
#X connect 164 1 206 0;
#X connect 164 2 207 0;
#X connect 164 3 208 0;
#X connect 164 4 209 0;
#X connect 164 5 210 0;
#X connect 164 6 211 0;
#X connect 164 7 212 0;
#X connect 164 8 213 0;
#X connect 164 9 188 0;
#X connect 164 10 214 0;
#X connect 164 11 215 0;
#X connect 164 12 216 0;
#X connect 164 13 217 0;
#X connect 164 14 218 0;
#X connect 164 15 219 0;
#X connect 164 16 205 0;
#X connect 165 1 206 1;
#X connect 165 2 207 1;
#X connect 165 3 208 1;
#X connect 165 4 209 1;
#X connect 165 5 210 1;
#X connect 165 6 211 1;
#X connect 165 7 212 1;
#X connect 165 8 213 1;
#X connect 165 9 188 1;
#X connect 165 10 214 1;
#X connect 165 11 215 1;
#X connect 165 12 216 1;
#X connect 165 13 217 1;
#X connect 165 14 218 1;
#X connect 165 15 219 1;
#X connect 165 16 205 1;
#X connect 166 1 206 5;
#X connect 166 2 207 5;
#X connect 166 3 208 5;
#X connect 166 4 209 5;
#X connect 166 5 210 5;
#X connect 166 6 211 5;
#X connect 166 7 212 5;
#X connect 166 8 213 5;
#X connect 166 9 188 5;
#X connect 166 10 214 5;
#X connect 166 11 215 5;
#X connect 166 12 216 5;
#X connect 166 13 217 5;
#X connect 166 14 218 5;
#X connect 166 15 219 5;
#X connect 166 16 205 5;
#X connect 170 0 99 0;
#X connect 172 0 0 0;
#X connect 173 0 1 0;
#X connect 174 0 52 0;
#X connect 175 0 54 0;
#X connect 176 0 45 0;
#X connect 179 0 174 0;
#X connect 180 0 175 0;
#X connect 181 0 172 0;
#X connect 182 0 173 0;
#X connect 183 0 176 0;
#X connect 184 0 185 0;
#X connect 185 0 187 0;
#X connect 185 0 186 0;
#X connect 186 0 91 0;
#X connect 186 0 92 0;
#X connect 186 0 93 0;
#X connect 186 0 97 0;
#X connect 186 0 94 0;
#X connect 186 0 95 0;
#X connect 186 0 96 0;
#X connect 186 0 147 0;
#X connect 186 0 148 0;
#X connect 186 0 149 0;
#X connect 186 0 150 0;
#X connect 186 0 151 0;
#X connect 186 0 152 0;
#X connect 186 0 153 0;
#X connect 186 0 154 0;
#X connect 188 0 121 0;
#X connect 189 0 190 0;
#X connect 190 0 192 0;
#X connect 192 0 194 0;
#X connect 192 0 206 5;
#X connect 192 0 207 5;
#X connect 192 0 208 5;
#X connect 192 0 209 5;
#X connect 192 0 210 5;
#X connect 192 0 211 5;
#X connect 192 0 212 5;
#X connect 192 0 213 5;
#X connect 194 0 188 5;
#X connect 194 0 205 5;
#X connect 194 0 214 5;
#X connect 194 0 215 5;
#X connect 194 0 216 5;
#X connect 194 0 217 5;
#X connect 194 0 218 5;
#X connect 194 0 219 5;
#X connect 196 0 197 0;
#X connect 196 0 42 0;
#X connect 200 0 34 0;
#X connect 201 0 29 0;
#X connect 202 0 200 0;
#X connect 203 0 201 0;
#X connect 205 0 131 0;
#X connect 206 0 8 0;
#X connect 207 0 4 0;
#X connect 208 0 6 0;
#X connect 209 0 10 0;
#X connect 210 0 18 0;
#X connect 211 0 14 0;
#X connect 212 0 16 0;
#X connect 213 0 20 0;
#X connect 214 0 117 0;
#X connect 215 0 119 0;
#X connect 216 0 123 0;
#X connect 217 0 129 0;
#X connect 218 0 125 0;
#X connect 219 0 127 0;
