#N canvas 0 0 762 472 10;
#X msg 18 34 start;
#X msg 32 56 stop;
#X floatatom 230 -19 6 0 0 3 button# - -;
#X floatatom 294 -16 2 0 0 3 button_value - -;
#X floatatom 88 237 5 0 0 3 y-axis - -;
#X floatatom 9 118 5 0 0 3 x-axis - -;
#X floatatom 99 143 3 0 0 3 hat-X - -;
#X floatatom 130 110 3 0 0 3 hat-Y - -;
#X floatatom 97 48 5 0 0 3 twist - -;
#X floatatom 6 242 5 0 0 3 throttle - -;
#X obj 230 111 select 0 1 2 3 4 5 6 7 8 9 10 11 12 13 14 15 16 17 18
19 20 21;
#X obj 249 147 bng 15 250 50 0 empty empty empty 0 -6 0 8 -262144 -1
-1;
#X obj 267 147 bng 15 250 50 0 empty empty empty 0 -6 0 8 -262144 -1
-1;
#X obj 285 147 bng 15 250 50 0 empty empty empty 0 -6 0 8 -262144 -1
-1;
#X obj 303 147 bng 15 250 50 0 empty empty empty 0 -6 0 8 -262144 -1
-1;
#X obj 321 147 bng 15 250 50 0 empty empty empty 0 -6 0 8 -262144 -1
-1;
#X obj 339 147 bng 15 250 50 0 empty empty empty 0 -6 0 8 -262144 -1
-1;
#X obj 649 127 bng 12 250 50 0 empty empty ? 4 -6 0 8 -261689 -1 -1
;
#X obj 618 146 bng 15 250 50 0 empty empty empty 0 -6 0 8 -262144 -1
-1;
#X obj 600 146 bng 15 250 50 0 empty empty empty 0 -6 0 8 -262144 -1
-1;
#X obj 393 147 bng 15 250 50 0 empty empty empty 0 -6 0 8 -262144 -1
-1;
#X obj 375 147 bng 15 250 50 0 empty empty empty 0 -6 0 8 -262144 -1
-1;
#X obj 357 147 bng 15 250 50 0 empty empty empty 0 -6 0 8 -262144 -1
-1;
#X obj 337 -16 bng 15 250 50 0 empty empty empty 0 -6 0 8 -262144 -1
-1;
#X obj 18 -145 loadbang;
#X obj 1462 514 s j_rueda;
#X obj 1462 536 s j_cross;
#X obj 788 491 vsl 14 30 0 255 0 0 empty joy2 empty 0 -8 64 8 -241291
-1 -1 0 1;
#X floatatom 8 329 0 0 0 0 - - joy2;
#X text 1351 541 scale faders;
#X floatatom 1280 703 5 0 0 0 - jfader7 -;
#X floatatom 1280 683 5 0 0 0 - jfader6 -;
#X floatatom 1280 663 5 0 0 0 - jfader5 -;
#X floatatom 1280 723 5 0 0 0 - jfader8 -;
#X obj 613 822 bng 15 250 50 1 empty empty + 0 -6 0 8 -258699 -1 -1
;
#X obj 652 823 bng 15 250 50 0 empty empty - 0 -6 0 8 -258699 -1 -1
;
#X obj 469 -130 bng 15 250 50 0 empty empty empty 0 -6 0 8 -62784 -1
-1;
#X obj 437 -130 bng 15 250 50 0 empty empty empty 0 -6 0 8 -62784 -1
-1;
#X obj 437 -157 select 0 1;
#X obj 576 -53 bng 15 250 50 0 empty empty empty 0 -6 0 8 -257472 -1
-1;
#X obj 469 -28 bng 15 250 50 0 empty empty empty 0 -6 0 8 -233017 -1
-1;
#X obj 543 -103 bng 15 250 50 0 empty empty empty 0 -6 0 8 -257472
-1 -1;
#X obj 437 -15 bng 15 250 50 0 empty empty empty 0 -8 0 8 -233017 -1
-1;
#X msg 294 -134 0;
#X msg 293 -111 1;
#X obj 230 -40 spigot 0;
#X text 489 -29 note on;
#X text 457 -15 note off;
#X obj 357 -111 bng 15 250 50 0 empty empty empty 0 -6 0 8 -262144
-1 -1;
#X obj 18 -120 bng 15 250 50 0 empty empty empty 0 -6 0 8 -128992 -1
-1;
#X text 406 -129 off;
#X text 491 -131 on;
#X obj 437 -102 stabilize_bang;
#X obj 255 -103 tgl 15 0 empty empty empty 0 -6 0 8 -44926 -1 -1 0
1;
#X msg 39 -120 0;
#X obj 318 -16 tgl 15 0 empty empty empty 0 -6 0 8 -44926 -1 -1 0 1
;
#X obj 215 126 bng 15 250 50 0 empty empty empty 0 -6 0 8 -262144 -1
-1;
#X floatatom 190 -77 2 0 0 0 button_received - -;
#X obj 275 -167 bng 15 250 50 0 empty empty empty 0 -6 0 8 -262144
-1 -1;
#X obj 469 -54 stabilize_bang;
#X obj 553 -203 loadbang;
#X obj 553 -184 bng 15 250 50 0 empty empty empty 0 -6 0 8 -128992
-1 -1;
#X floatatom 231 -58 5 0 0 0 - - -;
#X floatatom 1142 -24 6 0 0 3 button# - -;
#X msg 1140 -122 0;
#X msg 1092 -121 1;
#X obj 1142 -45 spigot 0;
#X obj 1117 -101 tgl 15 0 empty empty empty 0 -6 0 8 -44926 -1 -1 0
1;
#X obj 1061 -153 bng 15 250 50 0 empty empty empty 0 -6 0 8 -262144
-1 -1;
#X floatatom 1143 -63 5 0 0 0 - - -;
#X text 1056 -201 note off zone;
#X text 275 -190 note on zone;
#X obj 980 0 bng 15 250 50 0 empty empty empty 0 -6 0 8 -262144 -1
-1;
#X text 489 -29 note on;
#X text 457 -15 note off;
#X text 489 -29 note on;
#X text 457 -15 note off;
#X obj 928 119 select 0 1 2 3 4 5 6 7 8 9 10 11 12 13 14 15 16 17 18
19 20 21;
#X obj 495 425 tgl 20 0 jL empty empty 0 -6 128 8 -241291 -66577 -1
0 1;
#X obj 760 461 tgl 10 0 js empty empty 0 -6 128 8 -241291 -66577 -1
0 1;
#X obj 738 348 tgl 10 0 j> empty empty 0 -6 128 8 -262144 -66577 -1
0 1;
#X obj 842 437 tgl 20 0 jX empty empty 0 -6 128 8 -241291 -66577 -1
0 1;
#X obj 868 422 tgl 20 0 jY empty empty 0 -6 128 8 -241291 -66577 -1
0 1;
#X obj 897 416 tgl 20 0 jZ empty empty 0 -6 128 8 -241291 -66577 -1
0 1;
#X obj 850 461 tgl 20 0 jA empty empty 0 -6 128 8 -241291 -66577 -1
0 1;
#X obj 877 447 tgl 20 0 jB empty empty 0 -6 128 8 -241291 -66577 -1
0 1;
#X obj 906 443 tgl 20 0 jC empty empty 0 -6 128 8 -241291 -66577 -1
0 1;
#X obj 1020 431 tgl 20 0 jR empty empty 0 -6 128 8 -241291 -66577 -1
0 1;
#X obj 1192 322 tgl 20 0 empty empty empty 0 -6 0 8 -262144 -66577
-1 0 1;
#X obj 1216 322 tgl 20 0 empty empty empty 0 -6 0 8 -262144 -66577
-1 0 1;
#X obj 942 155 bng 15 250 50 0 empty empty empty 0 -6 0 8 -262144 -1
-1;
#X obj 960 155 bng 15 250 50 0 empty empty empty 0 -6 0 8 -262144 -1
-1;
#X obj 978 155 bng 15 250 50 0 empty empty empty 0 -6 0 8 -262144 -1
-1;
#X obj 996 155 bng 15 250 50 0 empty empty empty 0 -6 0 8 -262144 -1
-1;
#X obj 1014 155 bng 15 250 50 0 empty empty empty 0 -6 0 8 -262144
-1 -1;
#X obj 1032 155 bng 15 250 50 0 empty empty empty 0 -6 0 8 -262144
-1 -1;
#X obj 1316 154 bng 15 250 50 0 empty empty empty 0 -6 0 8 -262144
-1 -1;
#X obj 1298 154 bng 15 250 50 0 empty empty empty 0 -6 0 8 -262144
-1 -1;
#X obj 1086 155 bng 15 250 50 0 empty empty empty 0 -6 0 8 -262144
-1 -1;
#X obj 1068 155 bng 15 250 50 0 empty empty empty 0 -6 0 8 -262144
-1 -1;
#X obj 1050 155 bng 15 250 50 0 empty empty empty 0 -6 0 8 -262144
-1 -1;
#X obj 913 134 bng 15 250 50 0 empty empty empty 0 -6 0 8 -262144 -1
-1;
#X obj 1347 136 bng 12 250 50 0 empty empty ? 4 -6 0 8 -261689 -1 -1
;
#X obj 909 325 joybut;
#X obj 6 305 * -1;
#X msg 155 -17 0;
#X obj 136 -16 bng 15 250 50 0 empty empty empty 0 -6 0 8 -262144 -1
-1;
#X msg 1094 -14 0;
#X obj 1074 -13 bng 15 250 50 0 empty empty empty 0 -6 0 8 -262144
-1 -1;
#X obj 410 681 bng 15 250 50 0 empty jL L 0 -6 64 8 -262144 -1 -1;
#X obj 432 681 bng 15 250 50 0 empty jl l 0 -6 64 8 -262144 -1 -1;
#X obj 450 681 bng 15 250 50 0 empty jr r 0 -6 64 8 -262144 -1 -1;
#X obj 469 681 bng 15 250 50 0 empty jU u 0 -6 64 8 -262144 -1 -1;
#X obj 558 681 bng 15 250 50 0 empty empty A 0 -6 0 8 -262144 -1 -1
;
#X obj 576 681 bng 15 250 50 0 empty jB B 0 -6 64 8 -262144 -1 -1;
#X obj 594 681 bng 15 250 50 0 empty jC C 0 -6 64 8 -262144 -1 -1;
#X obj 617 681 bng 15 250 50 0 empty empty X 0 -6 0 8 -262144 -1 -1
;
#X obj 635 681 bng 15 250 50 0 empty jY Y 0 -6 64 8 -262144 -1 -1;
#X obj 653 681 bng 15 250 50 0 empty jZ Z 0 -6 64 8 -262144 -1 -1;
#X obj 514 681 bng 15 250 50 0 empty js s 0 -6 64 8 -262144 -1 -1;
#X obj 533 681 bng 15 250 50 0 empty j> > 0 -6 64 8 -262144 -1 -1;
#X obj 676 681 bng 15 250 50 0 empty empty empty 0 -6 0 8 -262144 -1
-1;
#X obj 694 681 bng 15 250 50 0 empty empty empty 0 -6 0 8 -262144 -1
-1;
#X obj 713 681 bng 15 250 50 0 empty empty empty 0 -6 0 8 -262144 -1
-1;
#X obj 488 681 bng 15 250 50 0 empty jd d 0 -6 64 8 -262144 -1 -1;
#X obj 391 681 bng 15 250 50 0 empty jR R 0 -6 64 8 -262144 -1 -1;
#X text 777 542 ## game_pad ##;
#X obj 980 28 delay 20;
#X obj 370 -46 delay 20;
#X obj 1061 -175 delay 50;
#X obj 304 -171 delay 50;
#X obj 376 824 bng 15 250 50 0 empty empty + 0 20 0 8 -258699 -1 -1
;
#X obj 401 824 bng 15 250 50 0 empty empty - 0 -6 0 8 -258699 -1 -1
;
#X obj 1008 506 bng 15 250 50 0 empty empty empty 0 -6 0 8 -258699
-1 -1;
#X obj 1110 506 bng 15 250 50 0 empty empty empty 0 20 0 6 -258699
-1 -1;
#X obj 1348 34 s stopfader;
#X floatatom 678 -161 5 0 0 0 - - -;
#X obj 658 -202 loadbang;
#X obj 658 -183 bng 15 250 50 0 empty empty empty 0 -6 0 8 -128992
-1 -1;
#X msg 678 -183 50;
#X text 574 -149 threshold off;
#X text 679 -148 threshold on;
#X floatatom 1280 625 5 0 0 0 - jfader3 -;
#X floatatom 1280 605 5 0 0 0 - jfader2 -;
#X floatatom 1280 585 5 0 0 0 - jfader1 -;
#X floatatom 1280 645 5 0 0 0 - jfader4 -;
#X floatatom 1118 593 5 0 0 0 - - -;
#X obj 1038 587 bng 15 250 50 0 empty empty empty 0 -6 0 8 -262144
-1 -1;
#X obj 1077 591 timer;
#X obj 1057 603 bng 15 250 50 0 empty empty empty 0 -6 0 8 -262144
-1 -1;
#X obj 1462 560 s j_crosstime;
#X text 1010 571 measure time pressed;
#X obj 1463 583 s jf1mix2;
#X obj 1463 605 s jf2mix2;
#X obj 1463 625 s jf3mix2;
#X obj 1463 645 s jf4mix2;
#X text 344 86 sends a bang every note on;
#X text 1080 99 sends a bang every note off;
#X obj 1463 666 s jf5mix2;
#X obj 1463 686 s jf6mix2;
#X obj 1463 706 s jf7mix2;
#X obj 1463 725 s jf8mix2;
#X obj 772 824 bng 15 250 50 0 empty empty empty 0 -6 0 8 -258699 -1
-1;
#X obj 152 189 select 1 -1;
#X obj 153 168 select 1 -1;
#X obj 726 431 bng 22 250 50 0 jRIGHT empty empty 0 -6 128 8 -241291
-1 -1;
#X obj 681 432 bng 22 250 50 0 jLEFT empty empty 0 -6 128 8 -241291
-1 -1;
#X obj 704 453 bng 22 250 50 0 jDOWN empty empty 0 -6 128 8 -241291
-1 -1;
#X obj 703 409 bng 22 250 50 0 jUP empty empty 0 -6 128 8 -241291 -1
-1;
#X floatatom 60 114 5 0 0 0 - - -;
#X floatatom 32 432 5 0 0 0 - - -;
#X floatatom 88 425 5 0 0 0 - - -;
#X obj 100 452 /;
#X floatatom 133 427 5 0 0 0 - - -;
#X msg 135 406 255;
#X floatatom 101 475 5 0 0 0 - - -;
#X obj 51 450 bng 15 250 50 0 empty empty empty 0 -6 0 8 -262144 -1
-1;
#X obj 53 470 *;
#X floatatom 100 498 5 0 0 0 - - -;
#X msg 82 402 127;
#X text 1010 668 button A + button B;
#X obj 1054 686 trickb;
#X text 1003 605 bangoff;
#X text 992 587 bangon;
#X text 1001 556 # C = crostime adjust #;
#X obj 1040 506 killnoff;
#X obj 672 794 rebang;
#X obj 360 528 rebang;
#X obj 341 512 rebang;
#X obj 624 793 rebang;
#X text 962 653 # C + Z = reset faders to 0 #;
#X obj 212 458 -;
#X floatatom 215 439 5 0 0 0 - - -;
#X obj 212 478 * -1;
#X floatatom 212 500 5 0 0 0 - - -;
#X obj 110 384 loadbang;
#X obj 81 381 bng 15 250 50 0 empty empty empty 0 -6 0 8 -128992 -1
-1;
#X msg 215 419 128;
#X floatatom 89 331 0 0 0 0 - - joy1;
#X obj 88 300 * -1;
#X obj 770 491 vsl 14 30 0 255 0 0 empty joy1 empty 0 -8 64 8 -241291
-1 -1 0 1;
#X obj 809 499 hsl 30 14 0 255 0 0 empty joy3 empty -2 -6 64 8 -241291
-1 -1 0 1;
#X floatatom 9 168 0 0 0 0 - - joy3;
#X text 1008 485 # S = crossfade #;
#X text 553 822 fader_up;
#X text 675 824 fader_down;
#X text 7 364 # TWIST FADER = fader speed adjust #;
#X floatatom 1280 860 5 0 0 0 - jfader15 -;
#X floatatom 1280 840 5 0 0 0 - jfader14 -;
#X floatatom 1280 820 5 0 0 0 - jfader13 -;
#X floatatom 1280 880 5 0 0 0 - jfader16 -;
#X floatatom 1280 782 5 0 0 0 - jfader11 -;
#X floatatom 1280 762 5 0 0 0 - jfader10 -;
#X floatatom 1280 742 5 0 0 0 - jfader9 -;
#X floatatom 1280 802 5 0 0 0 - jfader12 -;
#X obj 1463 746 s jf9mix2;
#X obj 1463 768 s jf10mix2;
#X obj 1463 788 s jf11mix2;
#X obj 1463 808 s jf12mix2;
#X obj 1463 829 s jf13mix2;
#X obj 1463 849 s jf14mix2;
#X obj 1463 869 s jf15mix2;
#X obj 1463 888 s jf16mix2;
#X obj 6 286 - 255;
#X msg 573 -184 50;
#X floatatom 573 -162 5 0 0 0 - - -;
#X text 1213 -161 *** corregir botones ke kedan pulsados al soltar
dos botones a la vez;
#X obj 435 324 joybut;
#X obj 486 323 joybut;
#X obj 530 324 joybut;
#X obj 577 324 joybut;
#X obj 625 324 joybut;
#X obj 672 324 joybut;
#X obj 719 324 joybut;
#X obj 766 324 joybut;
#X obj 813 324 joybut;
#X obj 860 324 joybut;
#X obj 958 327 joybut;
#X obj 1002 324 joybut;
#X obj 1049 324 joybut;
#X obj 1096 324 joybut;
#X obj 1143 324 joybut;
#X text 391 796 ## select channel ##;
#X text 791 824 reset faders to 0;
#X obj 828 690 loadbang;
#X floatatom 765 717 5 0 0 0 r_joy2 joy2 -;
#X floatatom 842 880 5 0 0 0 speedfader - -;
#X obj 945 827 bng 15 250 50 0 empty empty empty 0 -6 0 8 -258699 -1
-1;
#X text 966 823 stop faders;
#X obj 87 281 - 255;
#X floatatom 100 967 5 0 0 0 r_joy3 joy3 -;
#X floatatom 111 1130 5 0 0 0 speedfader - -;
#X obj 476 825 bng 15 250 50 0 empty empty + 0 20 0 8 -258699 -1 -1
;
#X obj 501 825 bng 15 250 50 0 empty empty - 0 -6 0 8 -258699 -1 -1
;
#X text 340 844 (note on only);
#X obj 17 1165 bng 15 250 50 0 empty empty empty 0 -6 0 8 -262144 -1
-1;
#X obj 62 1163 bng 15 250 50 0 empty empty empty 0 -6 0 8 -262144 -1
-1;
#X obj 26 1382 bng 15 250 50 0 empty empty empty 0 -6 0 8 -262144 -1
-1;
#X obj 68 1317 + 1;
#X obj 33 1316 int;
#X floatatom 33 1349 4 0 0 0 - - -;
#X msg 95 1284 0;
#X obj 19 1284 metro 500;
#X msg 28 1238 0;
#X msg 31 1261 stop;
#X obj 37 1166 bng 15 250 50 0 empty empty empty 0 -6 0 8 -262144 -1
-1;
#X text 453 843 (all bangs);
#X msg 177 1235 50;
#X obj 90 1165 select 25 15 10 3.5;
#X obj 24 1418 bng 15 250 50 0 empty empty empty 0 -6 0 8 -262144 -1
-1;
#X obj 226 1443 + 1;
#X obj 191 1442 int;
#X floatatom 191 1475 4 0 0 0 - - -;
#X msg 253 1410 0;
#X obj 177 1410 metro 500;
#X msg 186 1364 0;
#X msg 189 1387 stop;
#X obj 184 1342 bng 15 250 50 0 empty empty empty 0 -6 0 8 -262144
-1 -1;
#X msg 90 1204 250;
#X floatatom 871 1012 5 0 0 0 speedfader - -;
#X floatatom 1163 851 5 0 0 0 r_faderspeed faderspeed -;
#X floatatom 699 1171 5 0 0 0 - - -;
#X obj 847 1080 * -1;
#X obj 848 1056 - 128;
#X floatatom 843 1146 5 0 0 0 - - -;
#X floatatom 891 1227 5 0 127 0 - - -;
#X obj 91 786 s faderspeed;
#X obj 154 449 vsl 15 60 1 127 0 0 empty empty empty 0 -8 0 8 -262144
-1 -1 0 1;
#X floatatom 70 760 5 0 0 0 - - -;
#X obj 891 1268 * -1;
#X floatatom 891 1314 5 0 0 0 - - -;
#X text 0 925 received a bang \, sends a # of bangs depending joy zones
[up: 1 \, 2 \, 3 \, 4 \, down: 1 \, 2 \, 3 \, 4;
#X text 19 907 next / previous channel joy controlling;
#X text 828 972 sends bangs to control fader position by increments.
adjust the real speedfader depending of joy sens-zones.;
#X text 1463 916 outs to gui;
#X text 888 952 fader increment control assigned to joy2;
#X text 25 -209 ## joy engine ##;
#X text 1270 496 receive jfader[x] (1..16);
#X floatatom 80 593 0 0 0 0 - - -;
#X obj 57 622 log;
#X obj 57 669 *;
#X floatatom 61 717 5 0 0 0 - - -;
#X floatatom 80 568 5 0 0 0 - - -;
#X floatatom 97 648 5 0 0 0 - - -;
#X msg 98 618 26.21;
#X text 62 548 log 127 top;
#X obj 150 639 -;
#X floatatom 153 620 5 0 0 0 - - -;
#X obj 150 659 * -1;
#X floatatom 150 681 5 0 0 0 - - -;
#X msg 153 600 128;
#X obj 59 692 + 1;
#X floatatom 819 1198 5 0 0 0 - - -;
#X floatatom 1054 1011 5 0 0 0 r_speedfader_flow speedfader_flow -
;
#X text 101 807 (logarizmed);
#X floatatom 1038 1055 5 0 0 0 - - -;
#X floatatom 1039 1100 5 0 0 0 - - -;
#X obj 1039 1077 abs;
#X floatatom 1056 1168 5 0 0 0 - - -;
#X floatatom 969 1100 5 0 0 0 - - -;
#X msg 112 1237 300;
#X floatatom 274 967 5 0 0 0 r_speedfader_flow speedfader_flow -;
#X obj 186 1057 bng 15 250 50 0 empty empty joy_thres- 0 -6 0 8 -262144
-1 -1;
#X obj 19 1054 bng 15 250 50 0 empty joy_thres+ joy_thres+ 0 -6 64
8 -262144 -1 -1;
#X text 19 1071 +;
#X text 187 1075 -;
#X obj 40 1086 bng 15 250 50 0 empty empty joy_thresstop 0 -6 0 8 -262144
-1 -1;
#X obj 888 1203 * 1;
#X floatatom 964 1145 5 0 0 0 - - -;
#X text 949 1334 faderspeed flowing normalized;
#X obj 896 1172 bng 15 250 50 0 empty empty empty 0 -6 0 8 -262144
-1 -1;
#X obj 1038 1033 - 26;
#X obj 1051 1140 / 22.5;
#X obj 967 1122 + 0;
#X floatatom 1055 1284 5 0 0 0 - - -;
#X obj 1054 1238 log;
#X floatatom 1056 1208 5 0 0 0 - - -;
#X floatatom 1110 1210 5 0 0 0 - - -;
#X obj 891 1246 - 128;
#X obj 1057 1187 + 5;
#X obj 1077 1261 - 0.8;
#X msg 144 1236 250;
#X obj 723 742 joy_sense;
#X obj 101 1005 joy_sense;
#X obj 550 1206 joy_16faders_midi;
#X obj 1422 993 * 1.4285;
#X obj 1422 974 * 1.4285;
#X obj 1422 1013 * 0.9677;
#X obj 1422 1033 * 0.9677;
#X obj 1422 1054 * 0.0242;
#X obj 1422 1074 * 0.0242;
#X obj 1422 1094 * 0.0129;
#X obj 1422 1114 * 0.0129;
#X obj 1422 1156 * 1.4285;
#X obj 1422 1137 * 1.4285;
#X obj 1422 1176 * 0.9677;
#X obj 1422 1196 * 0.9677;
#X obj 1422 1217 * 0.0242;
#X obj 1422 1237 * 0.0242;
#X obj 1422 1257 * 0.0129;
#X obj 1422 1277 * 0.0129;
#X obj 9 82 linuxjoystick /dev/input/event0;
#X connect 0 0 361 0;
#X connect 1 0 361 0;
#X connect 2 0 10 0;
#X connect 3 0 23 0;
#X connect 3 0 38 0;
#X connect 3 0 55 0;
#X connect 4 0 249 0;
#X connect 5 0 202 0;
#X connect 6 0 163 0;
#X connect 7 0 164 0;
#X connect 8 0 169 0;
#X connect 9 0 223 0;
#X connect 10 0 56 0;
#X connect 10 1 11 0;
#X connect 10 2 12 0;
#X connect 10 3 13 0;
#X connect 10 4 14 0;
#X connect 10 5 15 0;
#X connect 10 6 16 0;
#X connect 10 7 22 0;
#X connect 10 8 21 0;
#X connect 10 9 20 0;
#X connect 10 10 103 0;
#X connect 10 10 113 0;
#X connect 10 11 237 0;
#X connect 10 12 147 0;
#X connect 10 12 238 0;
#X connect 10 13 116 0;
#X connect 10 13 234 0;
#X connect 10 14 235 0;
#X connect 10 15 236 0;
#X connect 10 16 227 0;
#X connect 10 17 239 0;
#X connect 10 18 232 0;
#X connect 10 19 233 0;
#X connect 10 20 19 0;
#X connect 10 21 18 0;
#X connect 10 22 17 0;
#X connect 24 0 49 0;
#X connect 30 0 160 0;
#X connect 31 0 159 0;
#X connect 32 0 158 0;
#X connect 33 0 161 0;
#X connect 34 0 344 4;
#X connect 35 0 344 5;
#X connect 36 0 59 0;
#X connect 37 0 52 0;
#X connect 38 0 37 0;
#X connect 38 1 36 0;
#X connect 40 0 48 0;
#X connect 42 0 72 0;
#X connect 43 0 53 0;
#X connect 44 0 53 0;
#X connect 45 0 2 0;
#X connect 48 0 128 0;
#X connect 49 0 0 0;
#X connect 49 0 54 0;
#X connect 52 0 42 0;
#X connect 52 1 41 0;
#X connect 53 0 45 1;
#X connect 54 0 53 0;
#X connect 57 0 62 0;
#X connect 57 0 69 0;
#X connect 58 0 43 0;
#X connect 58 0 106 0;
#X connect 59 0 40 0;
#X connect 59 1 39 0;
#X connect 60 0 61 0;
#X connect 61 0 224 0;
#X connect 62 0 45 0;
#X connect 63 0 77 0;
#X connect 64 0 67 0;
#X connect 65 0 67 0;
#X connect 66 0 63 0;
#X connect 67 0 66 1;
#X connect 68 0 64 0;
#X connect 68 0 108 0;
#X connect 69 0 66 0;
#X connect 72 0 127 0;
#X connect 77 0 101 0;
#X connect 77 1 90 0;
#X connect 77 2 91 0;
#X connect 77 3 92 0;
#X connect 77 4 93 0;
#X connect 77 5 94 0;
#X connect 77 6 95 0;
#X connect 77 7 100 0;
#X connect 77 8 99 0;
#X connect 77 9 98 0;
#X connect 77 10 103 1;
#X connect 77 11 237 1;
#X connect 77 12 149 0;
#X connect 77 12 238 1;
#X connect 77 13 234 1;
#X connect 77 14 235 1;
#X connect 77 15 236 1;
#X connect 77 16 227 1;
#X connect 77 17 239 1;
#X connect 77 18 232 1;
#X connect 77 19 233 1;
#X connect 77 20 97 0;
#X connect 77 21 96 0;
#X connect 77 22 102 0;
#X connect 83 0 181 1;
#X connect 86 0 181 0;
#X connect 103 0 84 0;
#X connect 104 0 28 0;
#X connect 105 0 2 0;
#X connect 106 0 105 0;
#X connect 107 0 63 0;
#X connect 108 0 107 0;
#X connect 108 0 135 0;
#X connect 109 0 132 0;
#X connect 113 0 35 0;
#X connect 116 0 34 0;
#X connect 119 0 133 0;
#X connect 125 0 131 0;
#X connect 127 0 65 0;
#X connect 127 0 129 0;
#X connect 127 0 69 0;
#X connect 128 0 44 0;
#X connect 128 0 130 0;
#X connect 128 0 62 0;
#X connect 129 0 68 0;
#X connect 130 0 58 0;
#X connect 131 0 344 0;
#X connect 132 0 344 1;
#X connect 133 0 185 0;
#X connect 134 0 26 0;
#X connect 136 0 59 1;
#X connect 137 0 138 0;
#X connect 138 0 139 0;
#X connect 139 0 136 0;
#X connect 142 0 154 0;
#X connect 143 0 153 0;
#X connect 144 0 152 0;
#X connect 145 0 155 0;
#X connect 146 0 150 0;
#X connect 147 0 148 0;
#X connect 148 0 146 0;
#X connect 149 0 148 1;
#X connect 162 0 344 6;
#X connect 163 0 165 0;
#X connect 163 1 166 0;
#X connect 164 0 167 0;
#X connect 164 1 168 0;
#X connect 165 0 188 0;
#X connect 166 0 187 0;
#X connect 167 0 186 0;
#X connect 168 0 189 0;
#X connect 169 0 170 0;
#X connect 170 0 177 0;
#X connect 170 0 176 0;
#X connect 171 0 172 0;
#X connect 172 0 175 0;
#X connect 173 0 172 1;
#X connect 174 0 173 0;
#X connect 175 0 177 1;
#X connect 176 0 172 0;
#X connect 177 0 178 0;
#X connect 178 0 287 0;
#X connect 179 0 171 0;
#X connect 181 0 162 0;
#X connect 185 0 134 0;
#X connect 186 0 35 0;
#X connect 187 0 132 0;
#X connect 188 0 131 0;
#X connect 189 0 34 0;
#X connect 191 0 193 0;
#X connect 192 0 191 1;
#X connect 193 0 194 0;
#X connect 194 0 302 0;
#X connect 195 0 196 0;
#X connect 196 0 197 0;
#X connect 196 0 174 0;
#X connect 196 0 179 0;
#X connect 196 0 310 0;
#X connect 197 0 192 0;
#X connect 199 0 198 0;
#X connect 207 0 221 0;
#X connect 208 0 220 0;
#X connect 209 0 219 0;
#X connect 210 0 222 0;
#X connect 211 0 217 0;
#X connect 212 0 216 0;
#X connect 213 0 215 0;
#X connect 214 0 218 0;
#X connect 223 0 104 0;
#X connect 224 0 225 0;
#X connect 225 0 52 1;
#X connect 227 0 78 0;
#X connect 232 0 79 0;
#X connect 233 0 80 0;
#X connect 234 0 81 0;
#X connect 235 0 82 0;
#X connect 236 0 83 0;
#X connect 237 0 85 0;
#X connect 238 0 86 0;
#X connect 239 0 87 0;
#X connect 240 0 88 0;
#X connect 241 0 89 0;
#X connect 244 0 162 0;
#X connect 245 0 342 0;
#X connect 247 0 344 7;
#X connect 249 0 199 0;
#X connect 250 0 343 0;
#X connect 251 0 268 0;
#X connect 252 0 344 2;
#X connect 253 0 344 3;
#X connect 255 0 262 0;
#X connect 256 0 274 0;
#X connect 257 0 252 0;
#X connect 258 0 259 1;
#X connect 259 0 260 0;
#X connect 259 0 258 0;
#X connect 261 0 259 0;
#X connect 262 0 259 0;
#X connect 262 0 257 0;
#X connect 263 0 262 0;
#X connect 263 0 261 0;
#X connect 263 0 264 0;
#X connect 264 0 262 0;
#X connect 265 0 263 0;
#X connect 267 0 262 1;
#X connect 267 0 274 1;
#X connect 268 2 341 0;
#X connect 268 3 267 0;
#X connect 269 0 253 0;
#X connect 270 0 271 1;
#X connect 271 0 272 0;
#X connect 271 0 270 0;
#X connect 273 0 271 0;
#X connect 274 0 271 0;
#X connect 274 0 269 0;
#X connect 275 0 274 0;
#X connect 275 0 273 0;
#X connect 275 0 276 0;
#X connect 276 0 274 0;
#X connect 277 0 275 0;
#X connect 278 0 262 1;
#X connect 278 0 274 1;
#X connect 279 0 283 0;
#X connect 280 0 279 0;
#X connect 280 0 342 1;
#X connect 281 0 344 8;
#X connect 282 0 284 0;
#X connect 283 0 282 0;
#X connect 284 0 327 0;
#X connect 284 0 312 0;
#X connect 285 0 338 0;
#X connect 287 0 191 0;
#X connect 288 0 286 0;
#X connect 289 0 290 0;
#X connect 290 0 281 0;
#X connect 298 0 299 0;
#X connect 298 0 304 0;
#X connect 299 0 300 0;
#X connect 300 0 311 0;
#X connect 301 0 306 0;
#X connect 302 0 298 0;
#X connect 303 0 300 1;
#X connect 304 0 303 0;
#X connect 306 0 308 0;
#X connect 307 0 306 1;
#X connect 308 0 309 0;
#X connect 309 0 288 0;
#X connect 310 0 307 0;
#X connect 311 0 301 0;
#X connect 313 0 331 0;
#X connect 315 0 317 0;
#X connect 316 0 332 0;
#X connect 317 0 316 0;
#X connect 318 0 339 0;
#X connect 319 0 333 0;
#X connect 320 0 262 1;
#X connect 320 0 274 1;
#X connect 321 0 343 1;
#X connect 322 0 256 0;
#X connect 323 0 255 0;
#X connect 326 0 265 0;
#X connect 327 0 285 0;
#X connect 330 0 327 0;
#X connect 331 0 315 0;
#X connect 332 0 319 0;
#X connect 332 0 318 0;
#X connect 333 0 328 0;
#X connect 334 0 327 1;
#X connect 334 0 330 0;
#X connect 335 0 340 0;
#X connect 336 0 335 0;
#X connect 337 0 335 0;
#X connect 338 0 289 0;
#X connect 339 0 336 0;
#X connect 340 0 334 0;
#X connect 341 0 262 1;
#X connect 341 0 274 1;
#X connect 342 0 34 0;
#X connect 342 1 35 0;
#X connect 342 2 246 0;
#X connect 342 3 247 0;
#X connect 343 2 251 0;
#X connect 343 3 277 0;
#X connect 343 4 323 0;
#X connect 343 5 322 0;
#X connect 343 6 326 0;
#X connect 361 0 5 0;
#X connect 361 1 4 0;
#X connect 361 2 8 0;
#X connect 361 3 6 0;
#X connect 361 4 7 0;
#X connect 361 5 9 0;
#X connect 361 6 57 0;
#X connect 361 7 3 0;
