#N canvas 0 0 762 472 10;
#X obj 95 17 vsl 15 128 0 127 0 0 empty jfader2 empty 0 -8 64 8 -241291
-1 -1 12700 1;
#X floatatom 320 11 0 0 0 0 - jfader2 -;
#X obj 126 17 vsl 15 128 0 127 0 0 empty jfader3 empty 0 -8 64 8 -241291
-1 -1 12700 1;
#X floatatom 319 31 0 0 0 0 - jfader3 -;
#X obj 62 17 vsl 15 128 0 127 0 0 empty jfader1 empty 0 -8 64 8 -241291
-1 -1 12700 1;
#X floatatom 320 -9 0 0 0 0 - jfader1 -;
#X obj 156 16 vsl 15 128 0 127 0 0 empty jfader4 empty 0 -8 64 8 -241291
-1 -1 12700 1;
#X floatatom 320 52 0 0 0 0 - jfader4 -;
#X obj 216 18 vsl 15 128 0 127 0 0 empty jfader6 empty 0 -8 64 8 -241291
-1 -1 10200 1;
#X floatatom 319 94 0 0 0 0 - jfader6 -;
#X obj 247 18 vsl 15 128 0 127 0 0 empty jfader7 empty 0 -8 64 8 -241291
-1 -1 4600 1;
#X floatatom 319 114 0 0 0 0 - jfader7 -;
#X obj 185 17 vsl 15 128 0 127 0 0 empty jfader5 empty 0 -8 64 8 -241291
-1 -1 12700 1;
#X floatatom 319 74 0 0 0 0 - jfader5 -;
#X obj 279 18 vsl 15 128 0 127 0 0 empty jfader8 empty 0 -8 64 8 -241291
-1 -1 0 1;
#X floatatom 319 134 0 0 0 0 - jfader8 -;
#X obj 260 415 hsl 50 8 127 1 1 8.38861e+06 \$16 faderspeed empty 0
-8 192 8 -241291 -1 -1 4115 1;
#X text 222 412 slow;
#X text 316 411 fast;
#X obj 62 -7 tgl 15 0 empty j1 empty 0 -6 64 8 -241291 -1 -1 0 1;
#X obj 96 -8 tgl 15 0 empty j2 empty 0 -6 64 8 -241291 -1 -1 0 1;
#X obj 127 -8 tgl 15 0 empty j3 empty 0 -6 64 8 -241291 -1 -1 0 1;
#X obj 156 -9 tgl 15 0 empty j4 empty 0 -6 64 8 -241291 -1 -1 0 1;
#X obj 186 -9 tgl 15 0 empty j5 empty 0 -6 64 8 -241291 -1 -1 0 1;
#X obj 215 -9 tgl 15 0 empty j6 empty 0 -6 64 8 -241291 -1 -1 1 1;
#X obj 246 -9 tgl 15 0 empty j7 empty 0 -6 64 8 -241291 -1 -1 0 1;
#X obj 279 -9 tgl 15 0 empty j8 empty 0 -6 64 8 -241291 -1 -1 0 1;
#X text 37 -45 monitor all faders position and selected channel to
edit;
#X obj 483 -5 r jf1mix2;
#X obj 483 13 r jf2mix2;
#X obj 483 34 r jf3mix2;
#X obj 483 55 r jf4mix2;
#X obj 483 75 r jf5mix2;
#X obj 483 95 r jf6mix2;
#X obj 483 115 r jf7mix2;
#X obj 483 135 r jf8mix2;
#X floatatom 562 -4 5 0 0 0 - - -;
#X floatatom 562 17 5 0 0 0 - - -;
#X floatatom 562 37 5 0 0 0 - - -;
#X floatatom 562 58 5 0 0 0 - - -;
#X floatatom 562 78 5 0 0 0 - - -;
#X floatatom 562 98 5 0 0 0 - - -;
#X floatatom 562 118 5 0 0 0 - - -;
#X floatatom 562 138 5 0 0 0 - - -;
#X obj 94 196 vsl 15 128 0 127 0 0 empty jfader10 empty 0 -8 64 8 -241291
-1 -1 0 1;
#X floatatom 319 190 0 0 0 0 - jfader10 -;
#X obj 125 196 vsl 15 128 0 127 0 0 empty jfader11 empty 0 -8 64 8
-241291 -1 -1 0 1;
#X floatatom 318 210 0 0 0 0 - jfader11 -;
#X obj 61 196 vsl 15 128 0 127 0 0 empty jfader9 empty 0 -8 64 8 -241291
-1 -1 0 1;
#X floatatom 319 167 0 0 0 0 - jfader9 -;
#X obj 155 195 vsl 15 128 0 127 0 0 empty jfader12 empty 0 -8 64 8
-241291 -1 -1 0 1;
#X floatatom 319 231 0 0 0 0 - jfader12 -;
#X obj 215 197 vsl 15 128 0 127 0 0 empty jfader14 empty 0 -8 64 8
-241291 -1 -1 0 1;
#X floatatom 318 273 0 0 0 0 - jfader14 -;
#X obj 246 197 vsl 15 128 0 127 0 0 empty jfader15 empty 0 -8 64 8
-241291 -1 -1 0 1;
#X floatatom 318 293 0 0 0 0 - jfader15 -;
#X obj 184 196 vsl 15 128 0 127 0 0 empty jfader13 empty 0 -8 64 8
-241291 -1 -1 0 1;
#X floatatom 318 253 0 0 0 0 - jfader13 -;
#X obj 278 197 vsl 15 128 0 127 0 0 empty jfader16 empty 0 -8 64 8
-241291 -1 -1 0 1;
#X floatatom 318 313 0 0 0 0 - jfader16 -;
#X obj 61 172 tgl 15 0 empty j9 empty 0 -6 64 8 -241291 -1 -1 0 1;
#X obj 95 171 tgl 15 0 empty j10 empty 0 -6 64 8 -241291 -1 -1 0 1
;
#X obj 126 171 tgl 15 0 empty j11 empty 0 -6 64 8 -241291 -1 -1 0 1
;
#X obj 155 170 tgl 15 0 empty j12 empty 0 -6 64 8 -241291 -1 -1 0 1
;
#X obj 185 170 tgl 15 0 empty j13 empty 0 -6 64 8 -241291 -1 -1 0 1
;
#X obj 214 170 tgl 15 0 empty j14 empty 0 -6 64 8 -241291 -1 -1 0 1
;
#X obj 245 170 tgl 15 0 empty j15 empty 0 -6 64 8 -241291 -1 -1 0 1
;
#X obj 278 170 tgl 15 0 empty j16 empty 0 -6 64 8 -241291 -1 -1 0 1
;
#X floatatom 561 175 5 0 0 0 - - -;
#X floatatom 561 196 5 0 0 0 - - -;
#X floatatom 561 216 5 0 0 0 - - -;
#X floatatom 561 237 5 0 0 0 - - -;
#X floatatom 561 257 5 0 0 0 - - -;
#X floatatom 561 277 5 0 0 0 - - -;
#X floatatom 561 297 5 0 0 0 - - -;
#X floatatom 561 317 5 0 0 0 - - -;
#X obj 482 171 r jf9mix2;
#X obj 482 192 r jf10mix2;
#X obj 482 213 r jf11mix2;
#X obj 482 234 r jf12mix2;
#X obj 482 254 r jf13mix2;
#X obj 482 274 r jf14mix2;
#X obj 482 294 r jf15mix2;
#X obj 482 314 r jf16mix2;
#X obj 179 478 vsl 14 30 0 255 0 0 empty joy2 empty 0 -8 64 8 -241291
-1 -1 1456 1;
#X obj 58 389 tgl 12 0 empty jL empty 0 -6 64 8 -241291 -66577 -1 0
1;
#X obj 136 461 tgl 10 0 empty js empty 0 -6 64 8 -241291 -66577 -1
0 1;
#X obj 225 452 tgl 20 0 empty jX empty 0 -6 64 8 -241291 -66577 -1
0 1;
#X obj 251 437 tgl 20 0 empty jY empty 0 -6 64 8 -241291 -66577 -1
0 1;
#X obj 280 431 tgl 20 0 empty jZ empty 0 -6 64 8 -241291 -66577 -1
0 1;
#X obj 229 479 tgl 20 0 empty jA empty 0 -6 64 8 -241291 -66577 -1
0 1;
#X obj 256 463 tgl 20 0 empty jB empty 0 -6 64 8 -241291 -66577 -1
0 1;
#X obj 285 458 tgl 20 0 empty jC empty 0 -6 64 8 -241291 -66577 -1
0 1;
#X obj 288 397 tgl 12 0 empty jR empty 0 -6 64 8 -241291 -66577 -1
0 1;
#X obj 106 443 bng 22 250 50 0 empty jRIGHT empty 0 -6 64 8 -241291
-1 -1;
#X obj 61 444 bng 22 250 50 0 empty jLEFT empty 0 -6 64 8 -241291 -1
-1;
#X obj 84 465 bng 22 250 50 0 empty jDOWN empty 0 -6 64 8 -241291 -1
-1;
#X obj 83 421 bng 22 250 50 0 empty jUP empty 0 -6 64 8 -241291 -1
-1;
#X obj 159 478 vsl 14 30 0 255 0 0 empty joy1 empty 0 -8 64 8 -241291
-1 -1 1422 1;
#X obj 162 515 hsl 30 14 0 255 0 0 empty joy3 empty -2 -6 64 8 -241291
-1 -1 1478 1;
#X obj 152 415 tgl 10 0 empty empty empty 0 -6 0 8 -262144 -66577 -1
0 1;
#X obj 186 415 tgl 10 0 empty empty empty 0 -6 0 8 -262144 -66577 -1
0 1;
#X text 107 565 WingMan Rumble Pad;
#X obj 651 -4 ctlout 7 1;
#X obj 651 17 ctlout 7 2;
#X obj 651 38 ctlout 7 3;
#X obj 651 58 ctlout 7 4;
#X obj 651 79 ctlout 7 5;
#X obj 651 100 ctlout 7 6;
#X obj 651 119 ctlout 7 7;
#X obj 651 140 ctlout 7 8;
#X obj 651 174 ctlout 7 9;
#X obj 651 194 ctlout 7 10;
#X obj 651 215 ctlout 7 11;
#X obj 651 236 ctlout 7 12;
#X obj 651 256 ctlout 7 13;
#X obj 651 276 ctlout 7 14;
#X obj 651 297 ctlout 7 15;
#X obj 651 318 ctlout 7 16;
#X text 622 -48 sends MIDI controllers control 7 \, channel 4;
#X text 508 368 off;
#X obj 541 557 noteout;
#X msg 404 514 0;
#X text 464 371 on;
#X msg 429 443 60;
#X msg 655 394 1;
#X floatatom 725 402 5 0 0 0 - - -;
#X obj 452 336 metro 10000;
#X obj 612 -127 ctlout 70 1;
#X obj 612 -106 ctlout 77 1;
#X obj 424 421 bng 15 250 50 0 empty empty empty 0 -6 0 8 -262144 -1
-1;
#X msg 326 335 23 0;
#X obj 342 382 stripnote;
#X msg 383 258 34.5 67.8;
#X msg 384 301 37.5 67.8;
#X msg 391 340 40 67.8;
#X msg 386 277 34.5 0;
#X msg 391 319 37.5 0;
#X msg 396 358 40 0;
#X msg 457 443 61;
#X msg 487 444 62;
#X msg 515 443 63;
#X msg 541 443 64;
#X obj 516 532 makenote;
#X msg 732 456 100;
#X msg 382 448 50;
#X msg 367 476 32;
#X msg 638 437 0;
#X msg 501 400 37;
#X floatatom 494 676 0 0 0 0 - - -;
#X floatatom 436 653 0 0 0 0 - - -;
#X msg 362 596 60;
#X floatatom 355 573 0 0 0 0 - - -;
#X text 394 574 numbers at left are "pitches" which may be integers
or not.;
#X text 460 647 "velocity";
#X text 529 679 duration in milliseconds;
#X obj 355 704 makenote 3.2 500;
#X text 478 703 creation arguments initialize velocity and duration
;
#X msg 375 622 64;
#X msg 407 621 63;
#X msg 435 621 65;
#X connect 2 0 126 0;
#X connect 28 0 36 0;
#X connect 29 0 37 0;
#X connect 30 0 38 0;
#X connect 31 0 39 0;
#X connect 32 0 40 0;
#X connect 33 0 41 0;
#X connect 34 0 42 0;
#X connect 35 0 43 0;
#X connect 36 0 128 0;
#X connect 36 0 103 0;
#X connect 37 0 129 0;
#X connect 37 0 104 0;
#X connect 38 0 105 0;
#X connect 39 0 106 0;
#X connect 40 0 107 0;
#X connect 41 0 108 0;
#X connect 42 0 109 0;
#X connect 43 0 110 0;
#X connect 68 0 111 0;
#X connect 69 0 112 0;
#X connect 70 0 113 0;
#X connect 71 0 114 0;
#X connect 72 0 115 0;
#X connect 73 0 116 0;
#X connect 74 0 117 0;
#X connect 75 0 118 0;
#X connect 76 0 68 0;
#X connect 77 0 69 0;
#X connect 78 0 70 0;
#X connect 79 0 71 0;
#X connect 80 0 72 0;
#X connect 81 0 73 0;
#X connect 82 0 74 0;
#X connect 83 0 75 0;
#X connect 122 0 143 0;
#X connect 124 0 143 0;
#X connect 125 0 143 0;
#X connect 126 0 143 1;
#X connect 130 0 124 0;
#X connect 131 0 132 0;
#X connect 133 0 132 0;
#X connect 134 0 132 0;
#X connect 135 0 132 0;
#X connect 136 0 132 0;
#X connect 137 0 132 0;
#X connect 138 0 132 0;
#X connect 139 0 143 0;
#X connect 140 0 143 0;
#X connect 141 0 143 0;
#X connect 142 0 143 0;
#X connect 143 0 121 0;
#X connect 144 0 143 2;
#X connect 145 0 143 0;
#X connect 146 0 143 0;
#X connect 147 0 143 1;
#X connect 147 0 121 1;
#X connect 147 0 121 2;
#X connect 148 0 143 0;
#X connect 149 0 156 2;
#X connect 150 0 156 1;
#X connect 151 0 156 0;
#X connect 152 0 156 0;
#X connect 158 0 156 0;
#X connect 159 0 156 0;
#X connect 160 0 156 0;
