#N canvas 1010 783 552 289 10;
#X obj 85 120 oneshot;
#X msg 86 94 clear;
#X obj 143 122 bng 15 250 50 0 empty empty empty 0 -6 0 8 -257472 -1
-1;
#X obj 145 79 bng 15 250 50 0 empty empty empty 0 -6 0 8 -233017 -1
-1;
#X obj 59 77 bng 15 250 50 0 empty empty empty 0 -6 0 8 -233017 -1
-1;
#X text 85 163 note on;
#X obj 86 41 inlet;
#X obj 82 203 outlet;
#X floatatom 178 118 5 0 0 0 - - -;
#X obj 192 42 inlet;
#X text 173 24 threshold in ms;
#X text 80 24 bang in;
#X text 72 229 bang out;
#X text 298 137 ** this patch triggs the bang to the output and wait
x ms to send another one \, if received.;
#X msg 203 95 1000;
#X obj 292 71 bng 15 250 50 0 empty empty empty 0 -6 0 8 -262144 -1
-1;
#X obj 292 47 loadbang;
#X obj 163 204 outlet;
#X text 155 231 enable next bang;
#X obj 87 143 delay;
#X connect 0 0 3 0;
#X connect 0 0 19 0;
#X connect 1 0 0 0;
#X connect 2 0 17 0;
#X connect 3 0 7 0;
#X connect 4 0 0 0;
#X connect 6 0 4 0;
#X connect 8 0 19 1;
#X connect 9 0 8 0;
#X connect 14 0 8 0;
#X connect 15 0 14 0;
#X connect 16 0 15 0;
#X connect 19 0 2 0;
#X connect 19 0 1 0;
